<?xml version="1.0" encoding="UTF-8"?>
<svg width="123px" height="39px" viewBox="0 0 123 39" version="1.1" xmlns="http://www.w3.org/2000/svg" xmlns:xlink="http://www.w3.org/1999/xlink">
    <title>Group</title>
    <g id="Page-1" stroke="none" stroke-width="1" fill="none" fill-rule="evenodd">
        <g id="Artboard" transform="translate(-243.000000, -65.000000)">
            <g id="Group" transform="translate(244.727616, 67.107295)">
                <g id="text3820-7-4-7-7" transform="translate(39.536708, 6.885800)" fill="#000000" fill-rule="nonzero">
                    <path d="M13.6487439,12.5324636 L3.08762106,12.5324636 C3.08762106,13.4396822 3.22022314,14.2324009 3.48542731,14.9106197 C3.75063213,15.5800243 4.11421904,16.1305253 4.57618806,16.5621228 C5.02104691,16.9849061 5.54717803,17.3019936 6.15458141,17.5133852 C6.77053988,17.7247769 7.44638324,17.8304727 8.18211149,17.8304727 C9.15737933,17.8304727 10.1369247,17.6322922 11.1207476,17.2359311 C12.1131256,16.8307627 12.8189114,16.4344017 13.2381051,16.0468481 L13.3664303,16.0468481 L13.3664303,18.7553128 C12.5537069,19.10763 11.7238738,19.4026955 10.8769308,19.6405094 C10.0299879,19.8783301 9.14026983,19.9972404 8.20777673,19.9972404 C5.82949235,19.9972404 3.97306155,19.3366399 2.63848434,18.0154387 C1.30390778,16.6854301 0.636619495,14.8005201 0.636619495,12.3607088 C0.636619495,9.94731293 1.27396533,8.0315736 2.54865699,6.6134908 C3.83190439,5.19540123 5.51723558,4.48635644 7.60465056,4.48635644 C9.53807608,4.48635644 11.0266427,5.06768347 12.0703506,6.23033752 C13.1226128,7.39299157 13.6487439,9.04449134 13.6487439,11.1848368 L13.6487439,12.5324636 Z M11.3004023,10.6299287 C11.2918479,9.32634913 10.971036,8.3178351 10.3379668,7.6043866 C9.71345323,6.89093811 8.75957308,6.53421386 7.47632634,6.53421386 C6.18452386,6.53421386 5.15364866,6.92617117 4.38370075,7.71008581 C3.62230726,8.49399368 3.19028069,9.46727464 3.08762106,10.6299287 L11.3004023,10.6299287 Z" id="path1314"></path>
                    <path d="M27.5463131,15.399462 C27.5463131,16.7470854 27.0030712,17.8524879 25.9165873,18.7156693 C24.8386579,19.5788575 23.3629235,20.0104516 21.4893842,20.0104516 C20.4285669,20.0104516 19.453299,19.8827338 18.5635807,19.6272983 C17.682418,19.3630621 16.9424122,19.076804 16.3435633,18.768524 L16.3435633,15.9807924 L16.4718885,15.9807924 C17.2332813,16.5709302 18.0802243,17.0421577 19.0127174,17.3944749 C19.9452105,17.7379846 20.8392061,17.9097395 21.6947041,17.9097395 C22.7555181,17.9097395 23.5853496,17.7335809 24.1841986,17.3812638 C24.7830476,17.0289398 25.082472,16.4740351 25.082472,15.7165495 C25.082472,15.1352258 24.9199282,14.6948277 24.5948404,14.3953551 C24.2697527,14.0958824 23.6452404,13.8404503 22.7213037,13.6290587 C22.3791006,13.5497851 21.9299632,13.4573004 21.3738916,13.3516046 C20.8263731,13.2459088 20.3259069,13.1314055 19.872493,13.0080949 C18.6149108,12.6645784 17.7209152,12.1625215 17.1905062,11.5019243 C16.6686523,10.8325197 16.4077254,10.0133754 16.4077254,9.04449134 C16.4077254,8.43673867 16.5274952,7.86421907 16.7670347,7.32693253 C17.0151294,6.78964599 17.3872711,6.30961108 17.8834598,5.88682779 C18.3625389,5.47285192 18.9699426,5.14695703 19.7056709,4.90914312 C20.4499542,4.66251502 21.2797864,4.53920097 22.1951674,4.53920097 C23.0506687,4.53920097 23.9147212,4.64930051 24.7873248,4.86949957 C25.6684894,5.08089122 26.3999417,5.34072707 26.9816818,5.64900711 L26.9816818,8.3046172 L26.8533557,8.3046172 C26.2373978,7.8377968 25.4888366,7.44584287 24.607672,7.1287554 C23.7265074,6.80286051 22.862455,6.63991306 22.0155146,6.63991306 C21.134352,6.63991306 20.390069,6.81607164 19.7826656,7.1683888 C19.1752622,7.51189853 18.8715605,8.02716651 18.8715605,8.71419274 C18.8715605,9.32194542 19.0554924,9.77996178 19.4233562,10.0882418 C19.7826656,10.3965219 20.3644044,10.6475503 21.1685727,10.8413271 C21.6134322,10.9470229 22.1096198,11.0527187 22.6571357,11.1584146 C23.2132126,11.2641104 23.6751842,11.3609988 24.0430506,11.4490798 C25.1637522,11.7133159 26.0278047,12.1669252 26.635208,12.8099076 C27.2426114,13.4617041 27.5463131,14.3248889 27.5463131,15.399462 Z" id="path1316"></path>
                    <path d="M38.4539305,19.5216092 C38.0004935,19.6449199 37.5043042,19.746212 36.9653428,19.8254856 C36.4349358,19.9047524 35.9601358,19.9443858 35.5409428,19.9443858 C34.0780381,19.9443858 32.965891,19.5392207 32.2045014,18.7288906 C31.4431053,17.9185537 31.0624072,16.6193711 31.0624072,14.8313427 L31.0624072,6.9834228 L29.4326814,6.9834228 L29.4326814,4.89593199 L31.0624072,4.89593199 L31.0624072,0.654874407 L33.4749119,0.654874407 L33.4749119,4.89593199 L38.4539305,4.89593199 L38.4539305,6.9834228 L33.4749119,6.9834228 L33.4749119,13.7083254 C33.4749119,14.4834327 33.4920273,15.0911853 33.5262582,15.5315835 C33.560489,15.9631742 33.6802608,16.3683426 33.8855735,16.7470888 C34.0737839,17.099406 34.330433,17.3592418 34.6555207,17.5265964 C34.9891629,17.6851367 35.4939066,17.7644069 36.169752,17.7644069 C36.5632817,17.7644069 36.9739202,17.7071553 37.4016676,17.592652 C37.829415,17.4693413 38.1373939,17.3680492 38.3256043,17.2887757 L38.4539305,17.2887757 L38.4539305,19.5216092 Z" id="path1318"></path>
                    <path d="M53.5962233,12.2814318 C53.5962233,14.6860135 52.9973743,16.584138 51.7996764,17.9758053 C50.6019784,19.3674658 48.9979192,20.0632961 46.9874986,20.0632961 C44.9599692,20.0632961 43.3473555,19.3674658 42.1496576,17.9758053 C40.9605141,16.584138 40.3659423,14.6860135 40.3659423,12.2814318 C40.3659423,9.87685018 40.9605141,7.97872569 42.1496576,6.58705839 C43.3473555,5.18659043 44.9599692,4.48635644 46.9874986,4.48635644 C48.9979192,4.48635644 50.6019784,5.18659043 51.7996764,6.58705839 C52.9973743,7.97872569 53.5962233,9.87685018 53.5962233,12.2814318 Z M51.1067288,12.2814318 C51.1067288,10.3700996 50.7431396,8.95201342 50.0159611,8.02717328 C49.2887893,7.09352571 48.2793018,6.62670193 46.9874986,6.62670193 C45.6785866,6.62670193 44.6605447,7.09352571 43.9333729,8.02717328 C43.2147554,8.95201342 42.8554467,10.3700996 42.8554467,12.2814318 C42.8554467,14.1311121 43.2190326,15.5359872 43.9462045,16.496057 C44.6733763,17.4473194 45.6871411,17.9229506 46.9874986,17.9229506 C48.2707473,17.9229506 49.2759576,17.4517231 50.0031295,16.5092681 C50.7388623,15.5580057 51.1067288,14.148727 51.1067288,12.2814318 Z" id="path1320"></path>
                    <path d="M66.2875362,7.6043866 L66.15921,7.6043866 C65.7999045,7.51630562 65.4491502,7.45465029 65.1069471,7.4194206 C64.7733049,7.3753835 64.375498,7.35336494 63.9135264,7.35336494 C63.1692457,7.35336494 62.4506282,7.52512319 61.757674,7.86863969 C61.0647199,8.203342 60.3974322,8.63933642 59.7558112,9.17662296 L59.7558112,19.6537307 L57.3433065,19.6537307 L57.3433065,4.89593199 L59.7558112,4.89593199 L59.7558112,7.07591087 C60.7139656,6.28318882 61.556632,5.72388034 62.2838104,5.39798545 C63.0195367,5.06328314 63.7680946,4.89593199 64.5294842,4.89593199 C64.9486837,4.89593199 65.2523854,4.90915665 65.4405893,4.93560597 C65.6287997,4.95319375 65.9111153,4.99283053 66.2875362,5.05451631 L66.2875362,7.6043866 Z" id="path1322"></path>
                    <path d="M80.5829017,12.5324636 L70.0217878,12.5324636 C70.0217878,13.4396822 70.1543879,14.2324009 70.4195881,14.9106197 C70.6847949,15.5800243 71.0483808,16.1305253 71.5103459,16.5621228 C71.9552087,16.9849061 72.4813418,17.3019936 73.0887452,17.5133852 C73.704703,17.7247769 74.380545,17.8304727 75.1162713,17.8304727 C76.0915411,17.8304727 77.0710881,17.6322922 78.0549124,17.2359311 C79.047291,16.8307627 79.7530768,16.4344017 80.1722698,16.0468481 L80.300596,16.0468481 L80.300596,18.7553128 C79.4878733,19.10763 78.6580385,19.4026955 77.8110916,19.6405094 C76.9641513,19.8783301 76.0744323,19.9972404 75.1419346,19.9972404 C72.7636541,19.9972404 70.9072263,19.3366399 69.572651,18.0154387 C68.2380692,16.6854301 67.5707783,14.8005201 67.5707783,12.3607088 C67.5707783,9.94731293 68.2081255,8.0315736 69.4828197,6.6134908 C70.7660685,5.19540123 72.451398,4.48635644 74.5388084,4.48635644 C76.4722392,4.48635644 77.9608071,5.06768347 79.0045123,6.23033752 C80.0567719,7.39299157 80.5829017,9.04449134 80.5829017,11.1848368 L80.5829017,12.5324636 Z M78.2345651,10.6299287 C78.2260238,9.32634913 77.9052133,8.3178351 77.2721335,7.6043866 C76.6476147,6.89093811 75.6937342,6.53421386 74.4104921,6.53421386 C73.1186889,6.53421386 72.0878121,6.92617117 71.3178615,7.71008581 C70.556472,8.49399368 70.1244474,9.46727464 70.0217878,10.6299287 L78.2345651,10.6299287 Z" id="path1324"></path>
                </g>
                <path d="M34.97713,17.48856 C34.97713,22.1268167 33.134592,26.5751029 29.8548497,29.8548461 C26.5751074,33.1345894 22.1268217,34.97713 17.488565,34.97713 C12.8503083,34.97713 8.40202262,33.1345894 5.12228033,29.8548461 C1.84253804,26.5751029 -1.0658141e-14,22.1268167 -1.0658141e-14,17.48856 C-1.0658141e-14,7.82989421 7.82989921,-3.55271368e-15 17.488565,-3.55271368e-15 C27.1472308,-3.55271368e-15 34.97713,7.82989421 34.97713,17.48856 L34.97713,17.48856 Z" id="path929-0-3" stroke="#000000" stroke-width="2.3" fill="#FFFFFF" fill-rule="nonzero" stroke-linecap="round" stroke-linejoin="bevel"></path>
                <path d="M24.043883,17.48856 C24.043883,19.2271388 23.3532362,20.8945101 22.1238755,22.1238711 C20.8945149,23.3532322 19.2271438,24.04388 17.488565,24.04388 C15.7499862,24.04388 14.0826151,23.3532322 12.8532545,22.1238711 C11.6238938,20.8945101 10.933247,19.2271388 10.933247,17.48856 C10.933247,15.7499812 11.6238938,14.0826099 12.8532545,12.8532489 C14.0826151,11.6238878 15.7499862,10.93324 17.488565,10.93324 C19.2271438,10.93324 20.8945149,11.6238878 22.1238755,12.8532489 C23.3532362,14.0826099 24.043883,15.7499812 24.043883,17.48856 L24.043883,17.48856 Z" id="path929-2-8-8" stroke="#000000" stroke-width="2" fill="#FFFFFF" fill-rule="nonzero" stroke-linecap="round" stroke-linejoin="bevel"></path>
                <path d="M10.934207,17.53428 C10.934207,34.15495 10.934207,34.18843 10.934207,34.18843" id="path946-7-0" stroke="#000000" stroke-width="2"></path>
                <path d="M13.575527,22.74764 C26.567777,33.13542 26.593957,33.15634 26.593957,33.15634" id="path946-3-3-2" stroke="#000000" stroke-width="2"></path>
            </g>
        </g>
    </g>
</svg>