<?xml version="1.0" encoding="UTF-8"?>
<svg width="123px" height="38px" viewBox="0 0 123 38" version="1.1" xmlns="http://www.w3.org/2000/svg" xmlns:xlink="http://www.w3.org/1999/xlink">
    <title>g933</title>
    <g id="Page-1" stroke="none" stroke-width="1" fill="none" fill-rule="evenodd">
        <g id="Artboard" transform="translate(-249.000000, -17.000000)">
            <g id="g933" transform="translate(249.289303, 17.757500)">
                <g id="text3820-7-4-7" transform="translate(40.387139, 7.891940)" fill="#FFFFFF" fill-rule="nonzero">
                    <path d="M13.7692489,12.2282119 L3.20812507,12.2282119 C3.20812507,13.1354304 3.34072847,13.9281491 3.60593526,14.6063679 C3.87114205,15.2757725 4.23472799,15.8262736 4.69669306,16.257871 C5.14155585,16.6806543 5.66768894,16.9977418 6.27509233,17.2091335 C6.89105013,17.4205251 7.56689218,17.5262209 8.30261846,17.5262209 C9.27788827,17.5262209 10.2574353,17.3280404 11.2412595,16.9316794 C12.2336316,16.5265109 12.9394174,16.1301499 13.358617,15.7425963 L13.4869333,15.7425963 L13.4869333,18.4510611 C12.6742106,18.8033782 11.8443791,19.0984438 10.9974388,19.3362577 C10.1504985,19.5740783 9.26077943,19.6929887 8.32828173,19.6929887 C5.95000129,19.6929887 4.09357017,19.0323881 2.75898835,17.7111869 C1.4244131,16.3811783 0.75712548,14.4962684 0.75712548,12.056457 C0.75712548,9.64306116 1.39447263,7.72732184 2.66916692,6.30923903 C3.95241563,4.89114946 5.63774518,4.18210468 7.72515555,4.18210468 C9.65857976,4.18210468 11.1471477,4.7634317 12.1908595,5.92608575 C13.2431191,7.08873981 13.7692489,8.74023958 13.7692489,10.8805851 L13.7692489,12.2282119 Z M11.4209122,10.3256769 C11.412371,9.02209736 11.0915571,8.01358333 10.4584708,7.30013483 C9.83395856,6.58668634 8.88007808,6.22996209 7.59682937,6.22996209 C6.3050328,6.22996209 5.27415925,6.62191941 4.50420871,7.40583404 C3.74281258,8.18974191 3.31078471,9.16302287 3.20812507,10.3256769 L11.4209122,10.3256769 Z" id="path1347"></path>
                    <path d="M27.6668142,15.0952102 C27.6668142,16.4428337 27.1235755,17.5482361 26.0370982,18.4114175 C24.9591688,19.2746057 23.4834324,19.7061998 21.6098892,19.7061998 C20.5490751,19.7061998 19.5738086,19.578482 18.6840896,19.3230465 C17.802925,19.0588104 17.0629182,18.7725522 16.4640693,18.4642722 L16.4640693,15.6765406 L16.5923954,15.6765406 C17.3537916,16.2666717 18.2007352,16.7378992 19.1332263,17.0902231 C20.0657174,17.4337328 20.9597137,17.6054877 21.815215,17.6054877 C22.876029,17.6054877 23.7058605,17.4293291 24.3047095,17.077012 C24.9035585,16.7246881 25.2029829,16.1697833 25.2029829,15.4122977 C25.2029829,14.8309673 25.0404391,14.3905692 24.7153513,14.0911033 C24.3902636,13.7916307 23.7657481,13.5361985 22.8418048,13.3248069 C22.4996082,13.2455333 22.0504715,13.1530486 21.4943946,13.0473528 C20.9468788,12.941657 20.4464155,12.8271537 19.9930049,12.7038431 C18.7354194,12.3603266 17.8414232,11.8582697 17.3110162,11.1976725 C16.7891636,10.5282679 16.5282373,9.70912359 16.5282373,8.74023958 C16.5282373,8.1324869 16.6480057,7.5599673 16.8875427,7.02268076 C17.1356341,6.48539423 17.5077744,6.00535931 18.0039638,5.58257602 C18.4830442,5.16860015 19.0904476,4.84270526 19.8261739,4.60489135 C20.5704612,4.35826325 21.400296,4.23494921 22.3156783,4.23494921 C23.171173,4.23494921 24.0352255,4.34504874 24.9078357,4.56524781 C25.7890003,4.77663945 26.5204526,5.0364753 27.1021928,5.34475535 L27.1021928,8.00036543 L26.9738666,8.00036543 C26.3579088,7.53354503 25.6093476,7.1415911 24.728183,6.82450363 C23.8470184,6.49860874 22.9829659,6.3356613 22.1360255,6.3356613 C21.2548609,6.3356613 20.510577,6.51181987 19.9031736,6.86413703 C19.2957702,7.20764676 18.9920685,7.72291474 18.9920685,8.40994097 C18.9920685,9.01769365 19.1760017,9.47571001 19.5438681,9.78399005 C19.9031736,10.0922701 20.4849104,10.3432985 21.2890786,10.5370753 C21.7339414,10.6427712 22.2301308,10.748467 22.7776466,10.8541628 C23.3337169,10.9598586 23.7956853,11.056747 24.1635517,11.144828 C25.2842532,11.4090642 26.1483057,11.8626734 26.7557091,12.5056558 C27.3631125,13.1574523 27.6668142,14.0206372 27.6668142,15.0952102 L27.6668142,15.0952102 Z" id="path1349"></path>
                    <path d="M38.5744414,19.2173575 C38.1210045,19.3406681 37.6248151,19.4419602 37.0858537,19.5212338 C36.5554401,19.6005006 36.0806368,19.640134 35.6614439,19.640134 C34.1985457,19.640134 33.0863986,19.2349655 32.3250025,18.4246287 C31.5636129,17.6142985 31.1829181,16.3151193 31.1829181,14.527091 L31.1829181,6.67917103 L29.5531923,6.67917103 L29.5531923,4.59168022 L31.1829181,4.59168022 L31.1829181,0.350622639 L33.5954228,0.350622639 L33.5954228,4.59168022 L38.5744414,4.59168022 L38.5744414,6.67917103 L33.5954228,6.67917103 L33.5954228,13.4040737 C33.5954228,14.1791809 33.6125383,14.7869336 33.6467691,15.2273317 C33.6809999,15.6589224 33.8007684,16.0640909 34.0060745,16.442837 C34.1942849,16.7951542 34.450934,17.05499 34.7760218,17.2223446 C35.1096705,17.3808849 35.6144143,17.4601551 36.290253,17.4601551 C36.6837827,17.4601551 37.0944245,17.4029035 37.5221785,17.2884002 C37.9499259,17.1650896 38.2579048,17.0637975 38.4461152,16.9845239 L38.5744414,16.9845239 L38.5744414,19.2173575 Z" id="path1351"></path>
                    <path d="M53.7167342,11.9771801 C53.7167342,14.3817617 53.1178852,16.2798862 51.9201873,17.6715535 C50.7224894,19.0632141 49.1184301,19.7590443 47.1080095,19.7590443 C45.0804801,19.7590443 43.4678664,19.0632141 42.2701685,17.6715535 C41.081025,16.2798862 40.4864533,14.3817617 40.4864533,11.9771801 C40.4864533,9.57259841 41.081025,7.67447393 42.2701685,6.28280662 C43.4678664,4.88233866 45.0804801,4.18210468 47.1080095,4.18210468 C49.1184301,4.18210468 50.7224894,4.88233866 51.9201873,6.28280662 C53.1178852,7.67447393 53.7167342,9.57259841 53.7167342,11.9771801 Z M51.2272298,11.9771801 C51.2272298,10.0658478 50.8636439,8.64776165 50.136472,7.72292151 C49.4093002,6.78927394 48.3998127,6.32245016 47.1080095,6.32245016 C45.7990976,6.32245016 44.7810556,6.78927394 44.0538838,7.72292151 C43.3352663,8.64776165 42.9759576,10.0658478 42.9759576,11.9771801 C42.9759576,13.8268604 43.3395435,15.2317354 44.0667154,16.1918052 C44.7938873,17.1430676 45.807652,17.6186988 47.1080095,17.6186988 C48.3912582,17.6186988 49.3964685,17.1474714 50.1236404,16.2050164 C50.8593667,15.253754 51.2272298,13.8444752 51.2272298,11.9771801 L51.2272298,11.9771801 Z" id="path1353"></path>
                    <path d="M66.4080441,7.30013483 L66.2797199,7.30013483 C65.9204105,7.21205385 65.5696562,7.15039852 65.227457,7.11516884 C64.8938129,7.07113173 64.4960063,7.04911317 64.0340373,7.04911317 C63.2897566,7.04911317 62.5711391,7.22087142 61.878185,7.56438792 C61.1852308,7.89909023 60.5179399,8.33508466 59.8763122,8.87237119 L59.8763122,19.3494789 L57.4638075,19.3494789 L57.4638075,4.59169036 L59.8763122,4.59169036 L59.8763122,6.77166925 C60.8344732,5.97894719 61.6771396,5.41963872 62.4043115,5.09374383 C63.1400443,4.75904152 63.8886059,4.59169036 64.6499961,4.59169036 C65.0691897,4.59169036 65.3728914,4.60491503 65.5611012,4.63136435 C65.7493109,4.64895213 66.0316252,4.68858891 66.4080441,4.75027469 L66.4080441,7.30013483 Z" id="path1355"></path>
                    <path d="M80.7034136,12.2282119 L70.1422898,12.2282119 C70.1422898,13.1354304 70.2748922,13.9281491 70.540097,14.6063679 C70.8053012,15.2757725 71.1688878,15.8262736 71.6308568,16.257871 C72.0757156,16.6806543 72.6018471,16.9977418 73.2092511,17.2091335 C73.8252096,17.4205251 74.501053,17.5262209 75.2367812,17.5262209 C76.2120491,17.5262209 77.1915941,17.3280404 78.1754164,16.9316794 C79.1677944,16.5265109 79.8735805,16.1301499 80.2927748,15.7425963 L80.421099,15.7425963 L80.421099,18.4510611 C79.6083757,18.8033782 78.7785425,19.0984438 77.9315996,19.3362577 C77.0846566,19.5740783 76.1949389,19.6929887 75.2624465,19.6929887 C72.8841614,19.6929887 71.0277306,19.0323881 69.6931541,17.7111869 C68.3585768,16.3811783 67.6912882,14.4962684 67.6912882,12.056457 C67.6912882,9.64306116 68.3286344,7.72732184 69.6033267,6.30923903 C70.8865735,4.89114946 72.5719046,4.18210468 74.6593203,4.18210468 C76.5927458,4.18210468 78.0813121,4.7634317 79.1250193,5.92608575 C80.1772822,7.08873981 80.7034136,8.74023958 80.7034136,10.8805851 L80.7034136,12.2282119 Z M78.3550711,10.3256769 C78.3465166,9.02209736 78.0257051,8.01358333 77.3926365,7.30013483 C76.768123,6.58668634 75.8142425,6.22996209 74.5309951,6.22996209 C73.2391933,6.22996209 72.2083181,6.62191941 71.4383695,7.40583404 C70.6769767,8.18974191 70.2449501,9.16302287 70.1422898,10.3256769 L78.3550711,10.3256769 Z" id="path1357"></path>
                </g>
                <path d="M35.94807,18.19046 C35.94807,22.8287176 34.1055313,27.2770045 30.8257879,30.5567479 C27.5460445,33.8364913 23.0977576,35.67903 18.4595,35.67903 C13.8212442,35.67903 9.37295977,33.8364875 6.09321856,30.5567444 C2.81347735,27.2770013 0.97094,22.8287158 0.97094,18.19046 C0.97094,13.5522042 2.81347735,9.10391871 6.09321856,5.82417563 C9.37295977,2.54443255 13.8212442,0.70189 18.4595,0.70189 C23.0977576,0.70189 27.5460445,2.54442873 30.8257879,5.8241721 C34.1055313,9.10391546 35.94807,13.5522024 35.94807,18.19046 L35.94807,18.19046 Z" id="path929-0" stroke="#FFFFFF" stroke-width="2.3" fill="#FFFFFF" fill-rule="nonzero" stroke-linecap="round" stroke-linejoin="bevel"></path>
                <path d="M25.01482,18.19046 C25.01482,19.9290391 24.3241729,21.5964107 23.0948118,22.8257718 C21.8654507,24.0551329 20.1980791,24.74578 18.4595,24.74578 C14.8391002,24.74578 11.90419,21.8108598 11.90419,18.19046 C11.90419,14.5700602 14.8391002,11.63514 18.4595,11.63514 C20.1980791,11.63514 21.8654507,12.3257871 23.0948118,13.5551482 C24.3241729,14.7845093 25.01482,16.4518809 25.01482,18.19046 Z" id="path929-2-8" stroke="#000000" stroke-width="2" fill="#FFFFFF" fill-rule="nonzero" stroke-linecap="round" stroke-linejoin="bevel"></path>
                <path d="M11.90514,18.23618 C11.90514,34.85685 11.90514,34.89033 11.90514,34.89033" id="path946-7" stroke="#000000" stroke-width="2"></path>
                <path d="M14.54647,23.44954 C27.53872,33.83732 27.5649,33.85824 27.5649,33.85824" id="path946-3-3" stroke="#000000" stroke-width="2"></path>
            </g>
        </g>
    </g>
</svg>