<?xml version="1.0" encoding="UTF-8" standalone="no"?>
<!-- Created with Inkscape (http://www.inkscape.org/) -->

<svg
   width="32.087204mm"
   height="9.8631372mm"
   viewBox="0 0 32.087204 9.8631372"
   version="1.1"
   id="svg1118"
   inkscape:version="1.1 (ce6663b3b7, 2021-05-25)"
   sodipodi:docname="logo__full_b_on_w_src.svg"
   xmlns:inkscape="http://www.inkscape.org/namespaces/inkscape"
   xmlns:sodipodi="http://sodipodi.sourceforge.net/DTD/sodipodi-0.dtd"
   xmlns="http://www.w3.org/2000/svg"
   xmlns:svg="http://www.w3.org/2000/svg">
  <sodipodi:namedview
     id="namedview1120"
     pagecolor="#ffffff"
     bordercolor="#666666"
     borderopacity="1.0"
     inkscape:pageshadow="2"
     inkscape:pageopacity="0.0"
     inkscape:pagecheckerboard="0"
     inkscape:document-units="mm"
     showgrid="false"
     inkscape:zoom="0.69130191"
     inkscape:cx="-77.39021"
     inkscape:cy="-18.081825"
     inkscape:window-width="1920"
     inkscape:window-height="948"
     inkscape:window-x="0"
     inkscape:window-y="27"
     inkscape:window-maximized="1"
     inkscape:current-layer="layer1" />
  <defs
     id="defs1115" />
  <g
     inkscape:label="Layer 1"
     inkscape:groupmode="layer"
     id="layer1"
     transform="translate(-125.56721,-31.045236)">
    <g
       id="g70"
       transform="matrix(0.26458333,0,0,0.26458333,115.99353,-20.789549)">
      <g
         transform="scale(0.98553,1.0147)"
         aria-label="estore"
         id="g64">
        <path
           d="M 91.849,213.35 H 81.133 q 0,1.3411 0.40365,2.3438 0.40365,0.98958 1.1068,1.6276 0.67708,0.625 1.6016,0.9375 0.9375,0.3125 2.0573,0.3125 1.4844,0 2.9818,-0.58594 1.5104,-0.59896 2.1484,-1.1719 h 0.13021 v 2.6693 q -1.237,0.52083 -2.526,0.87239 -1.2891,0.35157 -2.7083,0.35157 -3.6198,0 -5.651,-1.9531 -2.0313,-1.9662 -2.0313,-5.5729 0,-3.5677 1.9401,-5.6641 1.9531,-2.0964 5.1302,-2.0964 2.9427,0 4.5313,1.7188 1.6016,1.7188 1.6016,4.8828 z m -2.3828,-1.875 q -0.01302,-1.9271 -0.97656,-2.9818 -0.95052,-1.0547 -2.9036,-1.0547 -1.9661,0 -3.138,1.1589 -1.1589,1.1588 -1.3151,2.8776 z"
           id="path52" />
        <path
           d="m 105.95,216.18 q 0,1.9922 -1.6536,3.2682 -1.6406,1.276 -4.4922,1.276 -1.6146,0 -2.9688,-0.37761 -1.3411,-0.39062 -2.2526,-0.84635 v -2.7474 h 0.13021 q 1.1589,0.8724 2.5781,1.3932 1.4193,0.50781 2.7214,0.50781 1.6146,0 2.526,-0.52083 0.91146,-0.52084 0.91146,-1.6406 0,-0.85937 -0.49479,-1.3021 -0.49479,-0.44273 -1.901,-0.75521 -0.52084,-0.11719 -1.3672,-0.27344 -0.83333,-0.15625 -1.5234,-0.33854 -1.9141,-0.50782 -2.7214,-1.4844 -0.79427,-0.98958 -0.79427,-2.4219 0,-0.89844 0.36458,-1.6927 0.3776,-0.79427 1.1328,-1.4193 0.72917,-0.61198 1.849,-0.96354 1.1328,-0.36459 2.526,-0.36459 1.3021,0 2.6302,0.32552 1.3412,0.3125 2.2266,0.76823 v 2.6172 h -0.13021 q -0.9375,-0.6901 -2.2786,-1.1588 -1.3412,-0.48177 -2.6302,-0.48177 -1.3411,0 -2.2656,0.52083 -0.92448,0.50781 -0.92448,1.5234 0,0.89844 0.5599,1.3542 0.54688,0.45573 1.7708,0.74219 0.67708,0.15625 1.5104,0.3125 0.84636,0.15625 1.4063,0.28646 1.7057,0.39062 2.6302,1.3411 0.92448,0.96355 0.92448,2.5521 z"
           id="path54" />
        <path
           d="m 117.02,220.24 q -0.69011,0.18229 -1.5104,0.29948 -0.80729,0.11718 -1.4453,0.11718 -2.2266,0 -3.3854,-1.1979 -1.1589,-1.1979 -1.1589,-3.8412 v -7.7344 h -1.6536 v -2.0573 h 1.6536 v -4.1797 h 2.4479 v 4.1797 h 5.0521 v 2.0573 h -5.0521 v 6.6276 q 0,1.1458 0.0521,1.7969 0.0521,0.63802 0.36459,1.1979 0.28646,0.52083 0.78125,0.76823 0.50781,0.23437 1.5365,0.23437 0.59896,0 1.25,-0.16927 0.65104,-0.18229 0.9375,-0.29948 h 0.13021 z"
           id="path56" />
        <path
           d="m 132.38,213.1 q 0,3.5547 -1.8229,5.612 -1.8229,2.0573 -4.8828,2.0573 -3.0859,0 -4.9089,-2.0573 -1.8099,-2.0573 -1.8099,-5.612 0,-3.5547 1.8099,-5.612 1.8229,-2.0703 4.9089,-2.0703 3.0599,0 4.8828,2.0703 1.8229,2.0573 1.8229,5.612 z m -2.526,0 q 0,-2.8255 -1.1068,-4.1927 -1.1068,-1.3802 -3.0729,-1.3802 -1.9922,0 -3.099,1.3802 -1.0938,1.3672 -1.0938,4.1927 0,2.7344 1.1068,4.1536 1.1068,1.4062 3.0859,1.4062 1.9531,0 3.0599,-1.3932 1.1198,-1.4062 1.1198,-4.1667 z"
           id="path58" />
        <path
           d="m 145.26,208.49 h -0.13021 q -0.54687,-0.13021 -1.0677,-0.18229 -0.50781,-0.0651 -1.2109,-0.0651 -1.1328,0 -2.1875,0.50782 -1.0547,0.49479 -2.0312,1.2891 v 10.326 h -2.4479 v -14.544 h 2.4479 v 2.1484 q 1.4583,-1.1719 2.5651,-1.6536 1.1198,-0.49479 2.2786,-0.49479 0.63803,0 0.92448,0.0391 0.28646,0.026 0.85938,0.11719 z"
           id="path60" />
        <path
           d="m 159.77,213.35 h -10.716 q 0,1.3411 0.40364,2.3438 0.40365,0.98958 1.1068,1.6276 0.67709,0.625 1.6016,0.9375 0.9375,0.3125 2.0573,0.3125 1.4844,0 2.9818,-0.58594 1.5104,-0.59896 2.1484,-1.1719 h 0.13021 v 2.6693 q -1.237,0.52083 -2.526,0.87239 -1.2891,0.35157 -2.7083,0.35157 -3.6198,0 -5.651,-1.9531 -2.0313,-1.9662 -2.0313,-5.5729 0,-3.5677 1.9401,-5.6641 1.9531,-2.0964 5.1302,-2.0964 2.9427,0 4.5313,1.7188 1.6016,1.7188 1.6016,4.8828 z m -2.3828,-1.875 q -0.013,-1.9271 -0.97656,-2.9818 -0.95053,-1.0547 -2.9036,-1.0547 -1.9662,0 -3.138,1.1589 -1.1588,1.1588 -1.3151,2.8776 z"
           id="path62" />
      </g>
      <path
         d="M 72.312,214.55 A 17.489,17.489 0 0 1 54.823,232.039 17.489,17.489 0 0 1 37.334,214.55 17.489,17.489 0 0 1 54.823,197.061 17.489,17.489 0 0 1 72.312,214.55 Z"
         fill="#ffffff"
         stroke="#000000"
         stroke-linecap="round"
         stroke-linejoin="bevel"
         stroke-width="2.3"
         id="path66" />
      <path
         d="m 61.379,214.55 a 6.5553,6.5553 0 0 1 -6.5553,6.5553 6.5553,6.5553 0 0 1 -6.5553,-6.5553 6.5553,6.5553 0 0 1 6.5553,-6.5553 6.5553,6.5553 0 0 1 6.5553,6.5553 z"
         fill="#ffffff"
         stroke="#000000"
         stroke-linecap="round"
         stroke-linejoin="bevel"
         stroke-width="2"
         id="path68" />
    </g>
    <path
       d="m 128.76471,35.990033 v 4.406371"
       fill="none"
       stroke="#000000"
       stroke-width="0.529167"
       id="path72" />
    <path
       d="m 129.46347,37.368512 c 3.43747,2.748492 3.44435,2.754048 3.44435,2.754048"
       fill="none"
       stroke="#000000"
       stroke-width="0.529167"
       id="path74" />
  </g>
</svg>
